<?xml version="1.0" encoding="UTF-8" standalone="no"?>
<!-- Created with Inkscape (http://www.inkscape.org/) -->
<svg xmlns:rdf="http://www.w3.org/1999/02/22-rdf-syntax-ns#" xmlns="http://www.w3.org/2000/svg" xmlns:cc="http://web.resource.org/cc/" xmlns:dc="http://purl.org/dc/elements/1.1/" xmlns:svg="http://www.w3.org/2000/svg" xmlns:inkscape="http://www.inkscape.org/namespaces/inkscape" xmlns:sodipodi="http://sodipodi.sourceforge.net/DTD/sodipodi-0.dtd" xmlns:ns1="http://sozi.baierouge.fr" xmlns:xlink="http://www.w3.org/1999/xlink" id="svg2" viewBox="0 0 720 720" version="1.1" inkscape:version="0.91 r13725">
  <g id="g3284" transform="matrix(.81030 0 0 .81030 81.532 60.137)">
    <path id="path3257" style="fill:#ff0000" d="m303.91 305.27-37.406-64.781h149.62l-37.406 64.781h-74.812z"/>
    <path id="path3262" style="fill:#ffff00" d="m378.73 305.27 37.399-64.785 74.812 129.58-74.805-0.0041378-37.406-64.79z"/>
    <path id="path3264" style="fill:#00ff00" d="m416.14 370.07 74.805-0.0041378-74.813 129.58-37.399-64.785 37.406-64.79z"/>
    <path id="path3266" style="fill:#00ffff" d="m378.73 434.86 37.406 64.781-149.62-5e-13 37.406-64.781h74.812z"/>
    <path id="path3268" style="fill:#0000ff" d="m303.91 434.86-37.399 64.785-74.812-129.58 74.805 0.0041378 37.406 64.79z"/>
    <path id="path3270" style="fill:#ff00ff" d="m266.5 370.07-74.805 0.0041378 74.812-129.58 37.399 64.785-37.406 64.79z"/>
  </g>
  <g id="g3292" transform="matrix(.81030 0 0 .81030 263.39 -44.867)">
    <path id="path3294" style="fill:#ff0000" d="m303.91 305.27-37.406-64.781h149.62l-37.406 64.781h-74.812z"/>
    <path id="path3296" style="fill:#ffff00" d="m378.73 305.27 37.399-64.785 74.812 129.58-74.805-0.0041378-37.406-64.79z"/>
    <path id="path3298" style="fill:#00ff00" d="m416.14 370.07 74.805-0.0041378-74.813 129.58-37.399-64.785 37.406-64.79z"/>
    <path id="path3300" style="fill:#00ffff" d="m378.73 434.86 37.406 64.781-149.62-5e-13 37.406-64.781h74.812z"/>
    <path id="path3302" style="fill:#0000ff" d="m303.91 434.86-37.399 64.785-74.812-129.58 74.805 0.0041378 37.406 64.79z"/>
    <path id="path3304" style="fill:#ff00ff" d="m266.5 370.07-74.805 0.0041378 74.812-129.58 37.399 64.785-37.406 64.79z"/>
  </g>
  <g id="g3306" transform="matrix(.81030 0 0 .81030 81.532 -149.87)">
    <path id="path3308" style="fill:#ff0000" d="m303.91 305.27-37.406-64.781h149.62l-37.406 64.781h-74.812z"/>
    <path id="path3310" style="fill:#ffff00" d="m378.73 305.27 37.399-64.785 74.812 129.58-74.805-0.0041378-37.406-64.79z"/>
    <path id="path3312" style="fill:#00ff00" d="m416.14 370.07 74.805-0.0041378-74.813 129.58-37.399-64.785 37.406-64.79z"/>
    <path id="path3314" style="fill:#00ffff" d="m378.73 434.86 37.406 64.781-149.62-5e-13 37.406-64.781h74.812z"/>
    <path id="path3316" style="fill:#0000ff" d="m303.91 434.86-37.399 64.785-74.812-129.58 74.805 0.0041378 37.406 64.79z"/>
    <path id="path3318" style="fill:#ff00ff" d="m266.5 370.07-74.805 0.0041378 74.812-129.58 37.399 64.785-37.406 64.79z"/>
  </g>
  <g id="g3320" transform="matrix(.81030 0 0 .81030 -100.33 -44.854)">
    <path id="path3322" style="fill:#ff0000" d="m303.91 305.27-37.406-64.781h149.62l-37.406 64.781h-74.812z"/>
    <path id="path3324" style="fill:#ffff00" d="m378.73 305.27 37.399-64.785 74.812 129.58-74.805-0.0041378-37.406-64.79z"/>
    <path id="path3326" style="fill:#00ff00" d="m416.14 370.07 74.805-0.0041378-74.813 129.58-37.399-64.785 37.406-64.79z"/>
    <path id="path3328" style="fill:#00ffff" d="m378.73 434.86 37.406 64.781-149.62-5e-13 37.406-64.781h74.812z"/>
    <path id="path3330" style="fill:#0000ff" d="m303.91 434.86-37.399 64.785-74.812-129.58 74.805 0.0041378 37.406 64.79z"/>
    <path id="path3332" style="fill:#ff00ff" d="m266.5 370.07-74.805 0.0041378 74.812-129.58 37.399 64.785-37.406 64.79z"/>
  </g>
  <g id="g3334" transform="matrix(.81030 0 0 .81030 -100.33 165.14)">
    <path id="path3336" style="fill:#ff0000" d="m303.91 305.27-37.406-64.781h149.62l-37.406 64.781h-74.812z"/>
    <path id="path3338" style="fill:#ffff00" d="m378.73 305.27 37.399-64.785 74.812 129.58-74.805-0.0041378-37.406-64.79z"/>
    <path id="path3340" style="fill:#00ff00" d="m416.14 370.07 74.805-0.0041378-74.813 129.58-37.399-64.785 37.406-64.79z"/>
    <path id="path3342" style="fill:#00ffff" d="m378.73 434.86 37.406 64.781-149.62-5e-13 37.406-64.781h74.812z"/>
    <path id="path3344" style="fill:#0000ff" d="m303.91 434.86-37.399 64.785-74.812-129.58 74.805 0.0041378 37.406 64.79z"/>
    <path id="path3346" style="fill:#ff00ff" d="m266.5 370.07-74.805 0.0041378 74.812-129.58 37.399 64.785-37.406 64.79z"/>
  </g>
  <g id="g3348" transform="matrix(.81030 0 0 .81030 81.532 270.14)">
    <path id="path3350" style="fill:#ff0000" d="m303.91 305.27-37.406-64.781h149.62l-37.406 64.781h-74.812z"/>
    <path id="path3352" style="fill:#ffff00" d="m378.73 305.27 37.399-64.785 74.812 129.58-74.805-0.0041378-37.406-64.79z"/>
    <path id="path3354" style="fill:#00ff00" d="m416.14 370.07 74.805-0.0041378-74.813 129.58-37.399-64.785 37.406-64.79z"/>
    <path id="path3356" style="fill:#00ffff" d="m378.73 434.86 37.406 64.781-149.62-5e-13 37.406-64.781h74.812z"/>
    <path id="path3358" style="fill:#0000ff" d="m303.91 434.86-37.399 64.785-74.812-129.58 74.805 0.0041378 37.406 64.79z"/>
    <path id="path3360" style="fill:#ff00ff" d="m266.5 370.07-74.805 0.0041378 74.812-129.58 37.399 64.785-37.406 64.79z"/>
  </g>
  <g id="g3362" transform="matrix(.81030 0 0 .81030 263.39 165.12)">
    <path id="path3364" style="fill:#ff0000" d="m303.91 305.27-37.406-64.781h149.62l-37.406 64.781h-74.812z"/>
    <path id="path3366" style="fill:#ffff00" d="m378.73 305.27 37.399-64.785 74.812 129.58-74.805-0.0041378-37.406-64.79z"/>
    <path id="path3368" style="fill:#00ff00" d="m416.14 370.07 74.805-0.0041378-74.813 129.58-37.399-64.785 37.406-64.79z"/>
    <path id="path3370" style="fill:#00ffff" d="m378.73 434.86 37.406 64.781-149.62-5e-13 37.406-64.781h74.812z"/>
    <path id="path3372" style="fill:#0000ff" d="m303.91 434.86-37.399 64.785-74.812-129.58 74.805 0.0041378 37.406 64.79z"/>
    <path id="path3374" style="fill:#ff00ff" d="m266.5 370.07-74.805 0.0041378 74.812-129.58 37.399 64.785-37.406 64.79z"/>
  </g>
  <metadata>
    <rdf:RDF>
      <cc:Work>
        <dc:format>image/svg+xml</dc:format>
        <dc:type rdf:resource="http://purl.org/dc/dcmitype/StillImage"/>
        <cc:license rdf:resource="http://creativecommons.org/licenses/publicdomain/"/>
        <dc:publisher>
          <cc:Agent rdf:about="http://openclipart.org/">
            <dc:title>Openclipart</dc:title>
          </cc:Agent>
        </dc:publisher>
        <dc:title>half hexagon fun</dc:title>
        <dc:date>2011-07-12T17:05:00</dc:date>
        <dc:description>half hexagon fun</dc:description>
        <dc:source>https://openclipart.org/detail/149179/half-hexagon-fun-by-10binary</dc:source>
        <dc:creator>
          <cc:Agent>
            <dc:title>10binary</dc:title>
          </cc:Agent>
        </dc:creator>
        <dc:subject>
          <rdf:Bag>
            <rdf:li>6</rdf:li>
            <rdf:li>color</rdf:li>
            <rdf:li>fun</rdf:li>
            <rdf:li>half</rdf:li>
            <rdf:li>hexagon</rdf:li>
          </rdf:Bag>
        </dc:subject>
      </cc:Work>
      <cc:License rdf:about="http://creativecommons.org/licenses/publicdomain/">
        <cc:permits rdf:resource="http://creativecommons.org/ns#Reproduction"/>
        <cc:permits rdf:resource="http://creativecommons.org/ns#Distribution"/>
        <cc:permits rdf:resource="http://creativecommons.org/ns#DerivativeWorks"/>
      </cc:License>
    </rdf:RDF>
  </metadata>
</svg>
